<mxfile host="app.diagrams.net" agent="Mozilla/5.0 (Windows NT 10.0; Win64; x64) AppleWebKit/537.36 (KHTML, like Gecko) Chrome/128.0.0.0 Safari/537.36" version="24.7.13">
  <diagram name="Page-1" id="K5B_JgQff2A9Ff5rn22D">
    <mxGraphModel dx="1750" dy="2737" grid="1" gridSize="10" guides="1" tooltips="1" connect="1" arrows="1" fold="1" page="1" pageScale="1" pageWidth="1600" pageHeight="900" math="0" shadow="0">
      <root>
        <mxCell id="0" />
        <mxCell id="1" parent="0" />
        <mxCell id="Bq4jEPcIUO4K7s2xhVJ4-25" value="QC Application Server System ST004" style="swimlane;horizontal=0;whiteSpace=wrap;html=1;fontSize=18;startSize=80;fontFamily=Verdana;" parent="1" vertex="1">
          <mxGeometry x="30" y="-1080" width="1500" height="1480" as="geometry" />
        </mxCell>
        <mxCell id="Bq4jEPcIUO4K7s2xhVJ4-23" value="SQ001" style="swimlane;whiteSpace=wrap;html=1;fontSize=14;fillColor=#dae8fc;strokeColor=#6c8ebf;swimlaneFillColor=default;" parent="Bq4jEPcIUO4K7s2xhVJ4-25" vertex="1">
          <mxGeometry x="110" y="30" width="150" height="200" as="geometry">
            <mxRectangle x="30" width="80" height="30" as="alternateBounds" />
          </mxGeometry>
        </mxCell>
        <mxCell id="Bq4jEPcIUO4K7s2xhVJ4-42" value="&lt;span style=&quot;font-weight: 700;&quot;&gt;Agilent ECM Server&lt;/span&gt;&lt;br style=&quot;font-weight: 700;&quot;&gt;&lt;span style=&quot;font-weight: 700;&quot;&gt;10.0.17.10&lt;/span&gt;" style="sketch=0;pointerEvents=1;shadow=0;dashed=0;html=1;strokeColor=none;fillColor=#005F4B;labelPosition=center;verticalLabelPosition=bottom;verticalAlign=top;align=center;outlineConnect=0;shape=mxgraph.veeam2.virtual_machine;" parent="Bq4jEPcIUO4K7s2xhVJ4-23" vertex="1">
          <mxGeometry x="60" y="40" width="28.000000000000004" height="28.000000000000004" as="geometry" />
        </mxCell>
        <mxCell id="Bq4jEPcIUO4K7s2xhVJ4-43" value="&lt;span style=&quot;font-weight: 700;&quot;&gt;Agilent SQL Server&lt;/span&gt;&lt;br style=&quot;font-weight: 700;&quot;&gt;&lt;span style=&quot;font-weight: 700;&quot;&gt;10.0.17.11&lt;/span&gt;" style="sketch=0;pointerEvents=1;shadow=0;dashed=0;html=1;strokeColor=none;fillColor=#005F4B;labelPosition=center;verticalLabelPosition=bottom;verticalAlign=top;align=center;outlineConnect=0;shape=mxgraph.veeam2.virtual_machine;" parent="Bq4jEPcIUO4K7s2xhVJ4-23" vertex="1">
          <mxGeometry x="60" y="121" width="28.000000000000004" height="28.000000000000004" as="geometry" />
        </mxCell>
        <mxCell id="Bq4jEPcIUO4K7s2xhVJ4-32" value="QC Application Server (Production)&lt;br&gt;ETE0015" style="sketch=0;pointerEvents=1;shadow=0;dashed=0;html=1;strokeColor=none;fillColor=#005F4B;labelPosition=center;verticalLabelPosition=bottom;verticalAlign=top;align=center;outlineConnect=0;shape=mxgraph.veeam2.esxi_hyper_v_ahv_host;" parent="Bq4jEPcIUO4K7s2xhVJ4-25" vertex="1">
          <mxGeometry x="110" y="290" width="310" height="210" as="geometry" />
        </mxCell>
        <mxCell id="Bq4jEPcIUO4K7s2xhVJ4-36" value="QC Application Server (Standby)&lt;br&gt;ETE0016" style="sketch=0;pointerEvents=1;shadow=0;dashed=0;html=1;strokeColor=none;fillColor=#005F4B;labelPosition=center;verticalLabelPosition=bottom;verticalAlign=top;align=center;outlineConnect=0;shape=mxgraph.veeam2.esxi_hyper_v_ahv_host;" parent="Bq4jEPcIUO4K7s2xhVJ4-25" vertex="1">
          <mxGeometry x="110" y="550" width="310" height="200" as="geometry" />
        </mxCell>
        <mxCell id="Bq4jEPcIUO4K7s2xhVJ4-56" value="SAN Switch&lt;br&gt;ETC0017" style="sketch=0;pointerEvents=1;shadow=0;dashed=0;html=1;strokeColor=none;fillColor=#005F4B;labelPosition=center;verticalLabelPosition=bottom;verticalAlign=top;align=center;outlineConnect=0;shape=mxgraph.veeam2.physical_switch;" parent="Bq4jEPcIUO4K7s2xhVJ4-25" vertex="1">
          <mxGeometry x="530" y="345" width="220" height="60" as="geometry" />
        </mxCell>
        <mxCell id="Bq4jEPcIUO4K7s2xhVJ4-63" value="Storage Base&lt;br&gt;ETE0018" style="sketch=0;pointerEvents=1;shadow=0;dashed=0;html=1;strokeColor=none;fillColor=#005F4B;labelPosition=center;verticalLabelPosition=bottom;verticalAlign=top;align=center;outlineConnect=0;shape=mxgraph.veeam2.storage;" parent="Bq4jEPcIUO4K7s2xhVJ4-25" vertex="1">
          <mxGeometry x="530" y="560" width="220" height="71" as="geometry" />
        </mxCell>
        <mxCell id="Bq4jEPcIUO4K7s2xhVJ4-68" value="QC Backup Server&lt;br&gt;ETE0017" style="sketch=0;pointerEvents=1;shadow=0;dashed=0;html=1;strokeColor=none;fillColor=#005F4B;labelPosition=center;verticalLabelPosition=bottom;verticalAlign=top;align=center;outlineConnect=0;shape=mxgraph.veeam2.vbr_server;" parent="Bq4jEPcIUO4K7s2xhVJ4-25" vertex="1">
          <mxGeometry x="930" y="50" width="120" height="140" as="geometry" />
        </mxCell>
        <mxCell id="Bq4jEPcIUO4K7s2xhVJ4-69" value="GMP Backup Server&lt;br&gt;ETE0024" style="sketch=0;pointerEvents=1;shadow=0;dashed=0;html=1;strokeColor=none;fillColor=#005F4B;labelPosition=center;verticalLabelPosition=bottom;verticalAlign=top;align=center;outlineConnect=0;shape=mxgraph.veeam2.vbr_server;" parent="Bq4jEPcIUO4K7s2xhVJ4-25" vertex="1">
          <mxGeometry x="1230" y="50" width="120" height="140" as="geometry" />
        </mxCell>
        <mxCell id="Bq4jEPcIUO4K7s2xhVJ4-80" value="" style="edgeStyle=none;rounded=0;html=1;jettySize=auto;orthogonalLoop=1;strokeColor=#3333FF;strokeWidth=2;fontColor=#ffff00;jumpStyle=none;endArrow=block;endFill=1;startArrow=none;" parent="Bq4jEPcIUO4K7s2xhVJ4-25" edge="1">
          <mxGeometry width="100" relative="1" as="geometry">
            <mxPoint x="260" y="70" as="sourcePoint" />
            <mxPoint x="900" y="70" as="targetPoint" />
          </mxGeometry>
        </mxCell>
        <mxCell id="Bq4jEPcIUO4K7s2xhVJ4-70" value="" style="edgeStyle=none;rounded=0;html=1;jettySize=auto;orthogonalLoop=1;strokeColor=#3333FF;strokeWidth=2;fontColor=#000000;jumpStyle=none;endArrow=block;endFill=1;startArrow=none;" parent="Bq4jEPcIUO4K7s2xhVJ4-25" edge="1">
          <mxGeometry width="100" relative="1" as="geometry">
            <mxPoint x="420" y="180" as="sourcePoint" />
            <mxPoint x="900" y="180" as="targetPoint" />
          </mxGeometry>
        </mxCell>
        <mxCell id="Bq4jEPcIUO4K7s2xhVJ4-81" value="" style="edgeStyle=none;rounded=0;html=1;jettySize=auto;orthogonalLoop=1;strokeColor=#3333FF;strokeWidth=2;fontColor=#000000;jumpStyle=none;endArrow=block;endFill=1;startArrow=none;" parent="Bq4jEPcIUO4K7s2xhVJ4-25" edge="1">
          <mxGeometry width="100" relative="1" as="geometry">
            <mxPoint x="1070" y="110" as="sourcePoint" />
            <mxPoint x="1220" y="110" as="targetPoint" />
          </mxGeometry>
        </mxCell>
        <mxCell id="Bq4jEPcIUO4K7s2xhVJ4-82" value="" style="sketch=0;pointerEvents=1;shadow=0;dashed=0;html=1;strokeColor=none;fillColor=#005F4B;labelPosition=center;verticalLabelPosition=bottom;verticalAlign=top;align=center;outlineConnect=0;shape=mxgraph.veeam2.tape;" parent="Bq4jEPcIUO4K7s2xhVJ4-25" vertex="1">
          <mxGeometry x="1250" y="345" width="80" height="50" as="geometry" />
        </mxCell>
        <mxCell id="Bq4jEPcIUO4K7s2xhVJ4-83" value="" style="edgeStyle=none;rounded=0;html=1;jettySize=auto;orthogonalLoop=1;strokeColor=#3333FF;strokeWidth=2;fontColor=#000000;jumpStyle=none;endArrow=block;endFill=1;startArrow=none;" parent="Bq4jEPcIUO4K7s2xhVJ4-25" edge="1">
          <mxGeometry width="100" relative="1" as="geometry">
            <mxPoint x="989.38" y="250" as="sourcePoint" />
            <mxPoint x="989.38" y="330" as="targetPoint" />
          </mxGeometry>
        </mxCell>
        <mxCell id="Bq4jEPcIUO4K7s2xhVJ4-88" value="Network Attached Storage&lt;br&gt;ETE0021&lt;br&gt;10.0.4.38" style="sketch=0;pointerEvents=1;shadow=0;dashed=0;html=1;strokeColor=none;fillColor=#005F4B;labelPosition=center;verticalLabelPosition=bottom;verticalAlign=top;align=center;outlineConnect=0;shape=mxgraph.veeam2.nas;" parent="Bq4jEPcIUO4K7s2xhVJ4-25" vertex="1">
          <mxGeometry x="930" y="345" width="120" height="120" as="geometry" />
        </mxCell>
        <mxCell id="Bq4jEPcIUO4K7s2xhVJ4-89" value="" style="edgeStyle=none;rounded=0;html=1;jettySize=auto;orthogonalLoop=1;strokeColor=#3333FF;strokeWidth=2;fontColor=#000000;jumpStyle=none;endArrow=block;endFill=1;startArrow=none;" parent="Bq4jEPcIUO4K7s2xhVJ4-25" edge="1">
          <mxGeometry width="100" relative="1" as="geometry">
            <mxPoint x="1289.3700000000001" y="230" as="sourcePoint" />
            <mxPoint x="1289.3700000000001" y="320" as="targetPoint" />
          </mxGeometry>
        </mxCell>
        <mxCell id="Bq4jEPcIUO4K7s2xhVJ4-90" value="&lt;font color=&quot;#3333ff&quot;&gt;Data Backup Flow&lt;/font&gt;" style="text;strokeColor=none;fillColor=none;html=1;fontSize=24;fontStyle=1;verticalAlign=middle;align=center;" parent="Bq4jEPcIUO4K7s2xhVJ4-25" vertex="1">
          <mxGeometry x="580" y="110" width="100" height="40" as="geometry" />
        </mxCell>
        <mxCell id="Bq4jEPcIUO4K7s2xhVJ4-91" value="" style="line;strokeWidth=2;html=1;" parent="Bq4jEPcIUO4K7s2xhVJ4-25" vertex="1">
          <mxGeometry x="420" y="365" width="110" height="10" as="geometry" />
        </mxCell>
        <mxCell id="Bq4jEPcIUO4K7s2xhVJ4-95" value="" style="shape=partialRectangle;whiteSpace=wrap;html=1;bottom=0;right=0;fillColor=none;direction=west;" parent="Bq4jEPcIUO4K7s2xhVJ4-25" vertex="1">
          <mxGeometry x="420" y="370" width="60" height="260" as="geometry" />
        </mxCell>
        <mxCell id="Bq4jEPcIUO4K7s2xhVJ4-97" value="" style="shape=partialRectangle;whiteSpace=wrap;html=1;bottom=1;right=1;left=1;top=0;fillColor=none;routingCenterX=-0.5;direction=north;" parent="Bq4jEPcIUO4K7s2xhVJ4-25" vertex="1">
          <mxGeometry x="750" y="370" width="30" height="220" as="geometry" />
        </mxCell>
        <mxCell id="Bq4jEPcIUO4K7s2xhVJ4-98" value="IT Server Room (Primary) A219" style="text;strokeColor=none;fillColor=none;html=1;fontSize=24;fontStyle=1;verticalAlign=middle;align=center;" parent="Bq4jEPcIUO4K7s2xhVJ4-25" vertex="1">
          <mxGeometry x="1220" y="740" width="100" height="40" as="geometry" />
        </mxCell>
        <mxCell id="gJXoo7ZONlc0965VA1Qd-2" value="&lt;font face=&quot;Verdana&quot; style=&quot;font-size: 17px;&quot;&gt;Virtual Machine Platform&lt;/font&gt;" style="align=center;verticalAlign=middle;fontFamily=Tahoma;fillColor=#df8c42;strokeColor=none;fontColor=#ffffff;strokeWidth=2;html=1;whiteSpace=wrap;spacing=6;fontStyle=0" parent="Bq4jEPcIUO4K7s2xhVJ4-25" vertex="1">
          <mxGeometry x="110" y="240" width="310" height="40" as="geometry" />
        </mxCell>
        <mxCell id="Bq4jEPcIUO4K7s2xhVJ4-24" value="SQ002" style="swimlane;whiteSpace=wrap;html=1;fontSize=14;fillColor=#f8cecc;strokeColor=#b85450;gradientColor=none;glass=0;labelBorderColor=none;swimlaneFillColor=default;" parent="Bq4jEPcIUO4K7s2xhVJ4-25" vertex="1">
          <mxGeometry x="270" y="30" width="150" height="200" as="geometry" />
        </mxCell>
        <mxCell id="Bq4jEPcIUO4K7s2xhVJ4-46" value="&lt;span style=&quot;font-weight: 700;&quot;&gt;Empower Water Server&lt;/span&gt;&lt;br style=&quot;font-weight: 700;&quot;&gt;&lt;span style=&quot;font-weight: 700;&quot;&gt;10.0.17.21&lt;/span&gt;" style="sketch=0;pointerEvents=1;shadow=0;dashed=0;html=1;strokeColor=none;fillColor=#005F4B;labelPosition=center;verticalLabelPosition=bottom;verticalAlign=top;align=center;outlineConnect=0;shape=mxgraph.veeam2.virtual_machine;" parent="Bq4jEPcIUO4K7s2xhVJ4-24" vertex="1">
          <mxGeometry x="60" y="40" width="28.000000000000004" height="28.000000000000004" as="geometry" />
        </mxCell>
      </root>
    </mxGraphModel>
  </diagram>
</mxfile>
